# xmcd CD database file
#
# Track frame offsets:
#	150
#	11816
#	18883
#	30304
#	40723
#	51403
#	60103
#	71996
#	80814
#	91684
#	102109
#	110737
#	122919
#	134585
#	141652
#	153073
#	163492
#	174172
#	182872
#	194765
#	203583
#	214453
#	224878
#	233506
#	245688
#	257354
#	264421
#	275842
#	286261
#	296941
#	305641
#	317534
#	326352
#	337222
#	347647
#
# Disc length: 4748 seconds
#
# Revision: 0
# Processed by: cddbd v1.4PL0 Copyright (c) Steve Scherf et al.
# Submitted via: CDex 1.50
#
DISCID=25128a23
DTITLE=Waylon Jennings - Country Stars and Stripes  ~Zetroc Tunes Edition~
DYEAR=2003
DGENRE=Country
TTITLE0=Sally Was A Good Old Girl
TTITLE1=It's So Easy
TTITLE2=Big Mamou
TTITLE3=White Lightning
TTITLE4=Burning Memories
TTITLE5=Loves Gonna Live Here
TTITLE6=Crying
TTITLE7=Jole Blon
TTITLE8=Dream Baby
TTITLE9=Money
TTITLE10=Abilene
TTITLE11=Don't Think Twice It's Alright
TTITLE12=Sally Was A Good Old Girl
TTITLE13=It's So Easy
TTITLE14=Big Mamou
TTITLE15=White Lightning
TTITLE16=Burning Memories
TTITLE17=Loves Gonna Live Here
TTITLE18=Crying
TTITLE19=Jole Blon
TTITLE20=Dream Baby
TTITLE21=Money
TTITLE22=Abilene
TTITLE23=Don't Think Twice It's Alright
TTITLE24=Sally Was A Good Old Girl
TTITLE25=It's So Easy
TTITLE26=Big Mamou
TTITLE27=White Lightning
TTITLE28=Burning Memories
TTITLE29=Loves Gonna Live Here
TTITLE30=Crying
TTITLE31=Jole Blon
TTITLE32=Dream Baby
TTITLE33=Money
TTITLE34=Abilene
EXTD=YEAR: 2003
EXTT0=
EXTT1=
EXTT2=
EXTT3=
EXTT4=
EXTT5=
EXTT6=
EXTT7=
EXTT8=
EXTT9=
EXTT10=
EXTT11=
EXTT12=
EXTT13=
EXTT14=
EXTT15=
EXTT16=
EXTT17=
EXTT18=
EXTT19=
EXTT20=
EXTT21=
EXTT22=
EXTT23=
EXTT24=
EXTT25=
EXTT26=
EXTT27=
EXTT28=
EXTT29=
EXTT30=
EXTT31=
EXTT32=
EXTT33=
EXTT34=
PLAYORDER=
